# xmcd CD database file
#
# Track frame offsets:
#	150
#	13683
#	29347
#	39833
#	52088
#	65590
#	81555
#	95975
#	108453
#	123299
#	136992
#	150833
#	160597
#	173841
#	187578
#	203261
#	216345
#	230468
#	251530
#	264929
#
# Disc length: 3815 seconds
#
# Revision: 6
# Processed by: cddbd v1.5.2PL0 Copyright (c) Steve Scherf et al.
# Submitted via: CDex 1.70beta2
#
DISCID=030ee514
DTITLE=Various Artist - They're Playing Our Song - Unforgettable
DYEAR=2004
DGENRE=Jazz
TTITLE0=Rosemary Clooney - Hey There
TTITLE1=Nat King Cole - Unforgettable
TTITLE2=Bobby Vinton - When I Fall In Love
TTITLE3=Patsy Cline - Always
TTITLE4=Jack Jones - Fly Me To The Moon
TTITLE5=Gordon Macrae - My Funny Valentine
TTITLE6=Mel Torme - Blue Moon
TTITLE7=Andy Williams - Moon River
TTITLE8=Keely Smith - The Man I Love
TTITLE9=Ella Fitzgerald - Isn't It Romantic
TTITLE10=Al Martino - I'm In The Mood For Love
TTITLE11=Julie London - June In January
TTITLE12=Bobby Darin - You'll Never Know
TTITLE13=Les Paul and Mary Ford - That Old Feeling
TTITLE14=Peggy Lee - Somebody Loves Me
TTITLE15=Dean Martin - I Don't Know Why (I Just Do)
TTITLE16=Doris Day and Axel Stordahl Orchestra - Tea For Two
TTITLE17=Johnny Mathis - Don't Blame Me
TTITLE18=June Christy - I Remember You
TTITLE19=Judy Garland - I Can't Give You Anything But Love
EXTD=YEAR: 2004
EXTT0=
EXTT1=
EXTT2=
EXTT3=
EXTT4=
EXTT5=
EXTT6=
EXTT7=
EXTT8=
EXTT9=
EXTT10=
EXTT11=
EXTT12=
EXTT13=
EXTT14=
EXTT15=
EXTT16=
EXTT17=
EXTT18=
EXTT19=
PLAYORDER=
